<?xml version="1.0" encoding="UTF-8" standalone="no"?>
<!-- Created with Inkscape (http://www.inkscape.org/) -->

<svg
   version="1.1"
   id="svg1"
   width="768"
   height="477.33334"
   viewBox="0 0 768 477.33334"
   sodipodi:docname="EMPATHE.png"
   xmlns:inkscape="http://www.inkscape.org/namespaces/inkscape"
   xmlns:sodipodi="http://sodipodi.sourceforge.net/DTD/sodipodi-0.dtd"
   xmlns="http://www.w3.org/2000/svg"
   xmlns:svg="http://www.w3.org/2000/svg">
  <defs
     id="defs1" />
  <sodipodi:namedview
     id="namedview1"
     pagecolor="#505050"
     bordercolor="#ffffff"
     borderopacity="1"
     inkscape:showpageshadow="0"
     inkscape:pageopacity="0"
     inkscape:pagecheckerboard="1"
     inkscape:deskcolor="#505050">
    <inkscape:page
       x="0"
       y="0"
       width="768"
       height="477.33334"
       id="page2"
       margin="0"
       bleed="0" />
  </sodipodi:namedview>
  <g
     inkscape:groupmode="layer"
     inkscape:label="Image"
     id="g1">
    <g
       id="g5"
       transform="translate(-2.2103267,1.5827708)">
      <path
         style="fill:#b16ebb"
         d="m 335.79039,341.51354 c -0.92124,-0.3714 -1.3702,-1.16843 -0.99769,-1.77116 0.37252,-0.60274 -1.45693,-6.08219 -4.06543,-12.17656 -22.83447,-53.34935 -23.19161,-115.38012 -0.98549,-171.16647 5.06334,-12.72015 7.05691,-16.13711 7.05691,-12.09546 0,1.34082 3.79718,6.46307 8.43818,11.38277 42.63004,45.1901 41.90789,128.58364 -1.5189,175.40175 -4.02152,4.33557 -6.7759,8.42806 -6.37518,9.47231 0.38805,1.01125 0.57437,1.79127 0.41406,1.73337 -0.16032,-0.0579 -1.04523,-0.40914 -1.96646,-0.78055 z m 94.34164,-8.63553 c -45.65645,-49.31441 -45.51246,-132.20624 0.31443,-181.00209 8.18262,-8.71275 9.0189,-9.27746 9.0189,-6.09012 0,1.12922 1.12813,4.27922 2.50696,7 23.67976,46.72632 23.88654,128.89829 0.44191,175.61355 -1.84016,3.66667 -3.70645,7.95656 -4.14731,9.5331 -0.7254,2.59406 -1.49838,2.11379 -8.13489,-5.05444 z"
         id="path8" />
      <path
         style="fill:#fa8537"
         d="M 220.79869,449.74658 C 70.798217,424.05577 -2.3370807,248.9769 83.827398,121.85047 145.32452,31.11807 277.7391,6.4413437 370.80991,68.368524 c 16.47292,10.960703 16.35912,9.336499 1.71168,24.431399 -14.45087,14.892317 -23.05386,26.099057 -30.64999,39.926397 -6.83497,12.44177 -6.38246,12.31231 -16.09845,4.60555 -61.80064,-49.020513 -164.60847,-16.78086 -189.57917,59.4504 -3.87968,11.84397 -9.9751,10.88379 71.55845,11.27224 l 72.3796,0.34484 0.37644,30 c 0.20705,16.5 0.0456,31.35 -0.35873,33 l -0.73519,3 h -71.81133 c -83.15042,0 -76.36017,-1.37766 -70.90198,14.38522 25.92201,74.86108 126.72771,106.517 188.38244,59.15757 11.18185,-8.58922 10.32514,-8.72922 17.076,2.79055 8.26841,14.10934 19.01847,28.09586 31.74181,41.29813 13.12338,13.61737 13.13961,13.07938 -0.69198,22.9322 -41.38182,29.47796 -102.26311,43.37243 -152.41082,34.78356 z"
         id="path7" />
      <path
         style="fill:#4194d8"
         d="m 485.46536,449.76788 c -31.15557,-4.96825 -62.71786,-18.39193 -88.42233,-37.60667 l -9.75566,-7.2926 10.67814,-11.1226 c 12.41028,-12.92684 24.86589,-29.31002 32.66912,-42.97052 6.56965,-11.50097 5.64484,-11.33525 16.85972,-3.02131 65.60303,48.63354 166.82096,14.76147 189.71872,-63.4884 3.07664,-10.51399 8.07607,-9.80479 -71.81916,-10.18805 l -71.92855,-0.34504 v -32.66667 -32.66667 l 72.50734,-0.3449 72.50734,-0.3449 -0.69804,-5.20432 c -10.0664,-75.05057 -124.72803,-114.669554 -190.24133,-65.734 -5.4966,4.10572 -10.14819,6.7428 -10.42563,5.9105 -3.03329,-9.09988 -23.4489,-36.72201 -37.98287,-51.39049 C 385.28654,77.317482 385.79492,80.132244 395.79869,72.834543 497.76032,-1.5458968 646.71435,34.430419 703.14192,147.06602 779.39913,299.28373 652.07804,476.33692 485.46536,449.76788 Z"
         id="path6" />
      <path
         style="fill:#7b4b9f"
         d="m 374.00632,391.87718 c -13.30349,-13.78477 -22.83387,-26.14271 -30.38294,-39.39723 -7.84049,-13.76618 -7.84462,-12.83234 0.0946,-21.39154 43.42679,-46.81811 44.14894,-130.21165 1.5189,-175.40175 -4.641,-4.9197 -8.43818,-10.12618 -8.43818,-11.56996 0,-9.62926 41.8379,-63.050685 49.37922,-63.050685 5.65977,0 27.05986,23.566195 41.1665,45.333335 11.18767,17.26305 11.17727,17.16563 2.76371,25.90129 -45.24448,46.9766 -45.24439,133.43849 1.8e-4,180.53205 l 6.82125,7.1 -4.48914,7.99239 c -10.61112,18.89188 -40.64429,55.78855 -45.43367,55.81665 -0.84776,0.005 -6.69795,-5.33407 -13.00042,-11.86455 z"
         id="path5" />
    </g>
  </g>
</svg>
